<svg version="1.1" xmlns="http://www.w3.org/2000/svg" xmlns:xlink="http://www.w3.org/1999/xlink" id="hammer" viewBox="0 0 412 409">
    <title>hammer</title>
    <path fill="#fff" stroke="none" d=" M 381.65 48.75 Q 380.3 47.5 378.55 47.05 376.7 46.65 374.9 47.1 373.2 47.6 371.8 48.8 370.5 50.1 369.95 51.8 L 359.95 83.9 Q 357.95 90.3 352.05 93.4 346.05 96.5 339.65 94.5 336.5 93.55 334.05 91.45 331.55 89.4 330.05 86.55 326.9 80.55 328.95 74.15 L 338.85 42.55 Q 339.3 40.8 338.95 38.95 338.55 37.1 337.4 35.75 336.2 34.3 334.4 33.7 332.7 33.1 330.85 33.35 313.75 36.2 301.05 47.4 290 57.1 284.7 70.9 279.3 84.65 280.95 99.2 282.65 114.55 277.45 129.15 272.15 143.8 260.95 155.05 L 234.35 181.65 172.65 120 190.05 102.55 Q 192.1 100.5 192.1 97.5 192.1 94.55 190.05 92.45 L 185.6 88.1 251.65 22 Q 253.15 20.55 253.65 18.5 254.05 16.45 253.3 14.5 252.55 12.5 250.9 11.3 249.2 10 247.1 9.85 218.75 7.95 192 17.75 165.25 27.5 144.9 47.25 L 140.45 42.8 Q 138.35 40.8 135.4 40.8 132.4 40.8 130.4 42.8 L 59.5 113.7 Q 57.4 115.8 57.4 118.75 57.4 121.75 59.5 123.8 L 66.3 130.65 53.75 143.2 46.95 136.3 Q 44.85 134.3 41.9 134.3 41.5 134.3 41.1 134.35 38.7 134.55 36.9 136.3 L 11.35 161.8 Q 9.3 163.95 9.3 166.9 9.3 169.8 11.35 171.95 L 61 221.5 Q 63.05 223.6 66.05 223.6 69 223.6 71.05 221.5 L 96.6 196.05 Q 98.7 193.95 98.7 191 98.7 188 96.6 185.95 L 89.7 179.1 102.25 166.55 109.05 173.45 Q 111.2 175.55 114.15 175.55 117.1 175.55 119.2 173.45 L 136.6 156 198.25 217.7 151.1 264.95 Q 139.15 276.8 122.75 282.05 109 286.5 98.8 296.7 90.05 305.4 85.55 316.65 81 327.8 81.15 340.05 81.4 352.4 86.25 363.45 91.15 374.55 100.15 382.95 101.5 384.25 103.3 384.7 105.05 385.15 106.9 384.7 108.65 384.2 109.95 382.95 111.3 381.7 111.85 379.9 L 121.85 347.9 Q 122.8 344.75 124.85 342.3 126.9 339.8 129.75 338.35 135.75 335.25 142.25 337.2 148.7 339.3 151.7 345.2 154.85 351.1 152.85 357.55 L 143 389.15 Q 142.45 391 142.85 392.8 143.2 394.6 144.4 396 146.6 398.5 149.8 398.5 L 150.95 398.35 Q 167.9 395.65 180.75 384.35 191.85 374.6 197.2 360.85 202.5 347.1 200.85 332.5 199.15 317.1 204.4 302.55 208.55 290.9 216.6 281.35 L 232.95 265.1 338.35 370.6 Q 341.3 373.45 344.95 374.95 348.75 376.55 352.8 376.55 356.9 376.55 360.6 374.95 364.35 373.45 367.25 370.6 L 387.2 350.65 Q 393.1 344.7 393.1 336.2 393.1 327.75 387.2 321.8 L 281.55 216.15 330.8 166.85 Q 342.7 154.85 359.05 149.65 372.75 145.25 383.05 134.95 391.75 126.3 396.25 115.05 400.8 103.9 400.6 91.6 400.4 79.3 395.5 68.2 390.65 57.2 381.65 48.75 Z" />
</svg>
