<svg version="1.1" xmlns="http://www.w3.org/2000/svg" xmlns:xlink="http://www.w3.org/1999/xlink" id="hdd" viewBox="0 0 512 512">
    <title>hdd</title>
    <g fill="#fff">
        <path d="M416.008,0h-320C72.43,0,53.336,19.102,53.336,42.664v298.68v128C53.336,492.906,72.43,512,96.008,512h160h160 c23.563,0,42.656-19.094,42.656-42.656V42.664C458.664,19.102,439.57,0,416.008,0z M234.664,490.656H96.008 c-11.766,0-21.344-9.563-21.344-21.313V362.656h5.063c14.688,18.547,32.328,34.75,51.984,47.844l-1.391,1.094 c-7.875,5.828-12.984,15.188-12.984,25.75c0,17.656,14.328,32,32,32c10.563,0,19.922-5.125,25.75-13L189.539,438 c3.891,1.203,7.813,2.313,11.766,3.297c10.938,2.734,22.094,4.641,33.359,5.703V490.656z M277.336,298.656 c-2.625,0-5.031,0.969-6.891,2.547l-65.641,51.703c-0.922-0.375-1.859-0.734-2.766-1.125 c-16.516-6.984-31.344-16.984-44.094-29.719c-12.734-12.75-22.734-27.594-29.719-44.094 c-7.234-17.078-10.891-35.242-10.891-53.969s3.656-36.891,10.891-53.969c6.984-16.508,16.984-31.344,29.719-44.086 c12.75-12.742,27.578-22.742,44.094-29.727c17.078-7.219,35.234-10.883,53.969-10.883c18.719,0,36.875,3.664,53.969,10.883 c16.5,6.984,31.328,16.984,44.078,29.727c12.734,12.742,22.734,27.578,29.719,44.086c7.234,17.078,10.891,35.242,10.891,53.969 s-3.656,36.891-10.891,53.969c-6.984,16.5-16.984,31.344-29.719,44.094c-12.75,12.734-27.578,22.734-44.078,29.719 c-17.094,7.219-35.25,10.875-53.969,10.875c-2.344,0-4.672-0.047-7-0.156l36.453-46.281c1.578-1.844,2.547-4.25,2.547-6.875 C288.008,303.438,283.227,298.656,277.336,298.656z M208.804,376.923c0.454,0.14,0.907,0.265,1.36,0.405l-51.844,65.797 l-0.203,0.266l-0.188,0.266c-2.047,2.75-5.172,4.344-8.594,4.344c-5.891,0-10.672-4.781-10.672-10.656 c0-3.438,1.578-6.563,4.344-8.594l0.266-0.203l0.25-0.203L208.804,376.923z M437.336,469.344c0,11.75-9.578,21.313-21.328,21.313 h-160v-64c-18.063,0-35.563-2.344-52.219-6.75l29.547-37.5c7.406,1.031,14.969,1.594,22.672,1.594c88.359,0,160-71.625,160-160 c0-88.367-71.641-160-160-160c-88.375,0-160,71.633-160,160c0,63.203,36.641,117.844,89.844,143.844l-36.422,28.688 c-23.188-14.281-43.281-33.094-59.063-55.188H74.664V42.664c0-11.758,9.578-21.328,21.344-21.328h320 c11.75,0,21.328,9.57,21.328,21.328V469.344z" />
        <path d="M416.008,32c-5.891,0-10.672,4.773-10.672,10.664s4.781,10.672,10.672,10.672s10.656-4.781,10.656-10.672 S421.898,32,416.008,32z" />
        <path d="M416.008,458.656c-5.891,0-10.672,4.781-10.672,10.688c0,5.875,4.781,10.656,10.672,10.656s10.656-4.781,10.656-10.656 C426.664,463.438,421.898,458.656,416.008,458.656z" />
        <path d="M96.008,32c-5.891,0-10.672,4.773-10.672,10.664s4.781,10.672,10.672,10.672s10.656-4.781,10.656-10.672 S101.898,32,96.008,32z" />
        <path d="M256.008,213.336c-5.891,0-10.672,4.773-10.672,10.664s4.781,10.664,10.672,10.664s10.656-4.773,10.656-10.664 S261.898,213.336,256.008,213.336z" />
        <path d="M256.008,106.664c-64.813,0-117.344,52.531-117.344,117.336c0,5.891,4.781,10.664,10.672,10.664 s10.672-4.773,10.672-10.664c0-25.641,9.984-49.75,28.109-67.883C206.258,137.984,230.352,128,256.008,128 c5.89,0,10.656-4.773,10.656-10.664S261.898,106.664,256.008,106.664z" />
        <path d="M256.008,170.664c-29.469,0-53.344,23.883-53.344,53.336s23.875,53.344,53.344,53.344 c29.453,0,53.328-23.891,53.328-53.344S285.461,170.664,256.008,170.664z M256.008,256c-17.656,0-32-14.359-32-32s14.344-32,32-32 c17.641,0,32,14.359,32,32S273.648,256,256.008,256z" />
        <path d="M96.008,458.656c-5.891,0-10.672,4.781-10.672,10.688c0,5.875,4.781,10.656,10.672,10.656s10.656-4.781,10.656-10.656 C106.664,463.438,101.898,458.656,96.008,458.656z" />
        <path d="M306.211,429.781c-4.172-4.156-10.922-4.156-15.094,0c-2.078,2.094-3.125,4.828-3.109,7.563v31.984 c-0.016,2.734,1.031,5.453,3.109,7.547c4.172,4.156,10.922,4.156,15.094,0c2.078-2.078,3.125-4.813,3.125-7.531v-32 C309.336,434.594,308.289,431.875,306.211,429.781z" />
        <path d="M338.211,429.781c-4.172-4.156-10.922-4.156-15.094,0c-2.078,2.094-3.125,4.828-3.109,7.563v31.984 c-0.016,2.734,1.031,5.453,3.109,7.547c4.172,4.156,10.922,4.156,15.094,0c2.078-2.078,3.125-4.813,3.125-7.531v-32 C341.336,434.594,340.289,431.875,338.211,429.781z" />
        <path d="M370.211,429.781c-4.172-4.156-10.922-4.156-15.094,0c-2.078,2.094-3.125,4.828-3.109,7.563v31.984 c-0.016,2.734,1.031,5.453,3.109,7.547c4.172,4.156,10.922,4.156,15.094,0c2.078-2.094,3.125-4.813,3.125-7.547v-31.984 C373.336,434.609,372.289,431.875,370.211,429.781z" />
    </g>
</svg>
