
<svg xmlns="http://www.w3.org/2000/svg" version="1.1" xmlns:xlink="http://www.w3.org/1999/xlink" preserveAspectRatio="none" viewBox="0 0 300 300">
<path fill="#fff" stroke="none" d="
M 163.8 169.3
L 178.65 184.2
Q 182.6 188.2 188.15 188.25 193.8 188.3 197.75 184.5
L 197.8 184.45
Q 201.85 180.5 201.9 174.95 202 169.25 198.1 165.25
L 159.85 127
Q 155.9 123.05 150.35 122.95
L 150.25 122.95
Q 144.6 122.95 140.75 126.95
L 102.65 165.05
Q 98.7 168.85 98.55 174.4
L 98.55 174.45
Q 98.5 180.1 102.4 184.15 106.2 188.15 111.95 188.25 117.35 188.3 121.3 184.65 121.4 184.55 121.5 184.5
L 121.45 184.6
Q 121.5046875 184.4984375 121.65 184.45
L 136.65 169.3 136.65 270.95
Q 136.65 276.55 140.7 280.55 144.6 284.55 150.2 284.55 155.85 284.55 159.85 280.55
L 159.8 280.55 159.85 280.5 159.85 280.55
Q 163.8 276.55 163.8 270.95
L 163.8 169.3
M 202.35 31.3
Q 187.05 21.15 169.2 17.5 150.6 13.6 131.85 17.35
L 131.8 17.35
Q 103.8 22.9 83.7 43.1 64.6 62.1 58.6 88.1 46.8 90 36.5 95.9 25.05 102.3 16.85 112.7 8.65 122.95 4.95 135.55 1.15 148.6 2.7 162.15 4.1 174.75 9.95 185.8 10 185.85 10.05 186 15.75 196.65 24.8 204.75 33.9 212.85 45.25 217.3 56.95 221.8 69.6 221.8
L 114.4 221.8
Q 120 221.8 124 217.85 128 213.8 128 208.2 128 202.6 124 198.7 120 194.65 114.4 194.65
L 69.6 194.65
Q 61.5 194.6 54.05 191.4 53.9 191.35 53.8 191.3 46.75 188.25 41.4 182.7 41.25 182.6 41.15 182.55 35.75 177 32.75 169.85 32.65 169.7 32.6 169.65 29.6 162.25 29.65 154.25 29.75 146.05 32.95 138.6 36 131.45 41.6 125.9 47.2 120.35 54.5 117.35 61.95 114.25 70.15 114.3 75.25 114.3 79.15 110.9 79.15 110.85 79.2 110.85 83.05 107.35 83.65 102.15 85.2 88.65 91.9 76.95 98.3 65.55 108.6 57.45 118.9 49.25 131.45 45.55 131.5 45.55 131.55 45.5 144.45 41.8 157.95 43.35 169.35 44.7 179.7 49.7 189.75 54.6 197.7 62.55 214.15 79 216.85 102.3 216.85 102.35 216.85 102.4 217.6 107.6 221.7 111 225.65 114.35 230.85 114.3
L 230.9 114.3
Q 239.05 114.3 246.55 117.45 253.75 120.45 259.3 126.05 264.85 131.6 267.9 138.85 271 146.25 271 154.45 271 162.65 267.9 170.1 264.85 177.35 259.3 182.95 253.75 188.45 246.55 191.55 239.05 194.65 230.85 194.65
L 186.05 194.65
Q 180.45 194.65 176.45 198.7 172.5 202.6 172.5 208.2 172.5 213.8 176.4 217.8
L 176.45 217.8 176.45 217.85
Q 180.45 221.8 186.05 221.8
L 230.85 221.8
Q 244.6 221.7 257.1 216.35 257.2 216.3 257.3 216.25 269.15 211.1 278.35 201.75 287.65 192.4 292.65 180.35 297.85 167.75 297.8 154.05
L 297.8 154
Q 297.7 141.5 293.2 130 293.15 129.9 293.05 129.8 288.7 118.6 280.7 109.7 272.7 100.65 262.05 95.05 252.55 90 241.95 88.2 238 71.15 228.2 56.8 217.85 41.6 202.55 31.4 202.45 31.3 202.35 31.3 Z"/>
</svg>
