<svg xmlns="http://www.w3.org/2000/svg" style="display: none;"><symbol id="hdd" viewBox="0 0 512 512"><title>hdd</title><g> <g> <path d="M416.008,0h-320C72.43,0,53.336,19.102,53.336,42.664v298.68v128C53.336,492.906,72.43,512,96.008,512h160h160 c23.563,0,42.656-19.094,42.656-42.656V42.664C458.664,19.102,439.57,0,416.008,0z M234.664,490.656H96.008 c-11.766,0-21.344-9.563-21.344-21.313V362.656h5.063c14.688,18.547,32.328,34.75,51.984,47.844l-1.391,1.094 c-7.875,5.828-12.984,15.188-12.984,25.75c0,17.656,14.328,32,32,32c10.563,0,19.922-5.125,25.75-13L189.539,438 c3.891,1.203,7.813,2.313,11.766,3.297c10.938,2.734,22.094,4.641,33.359,5.703V490.656z M277.336,298.656 c-2.625,0-5.031,0.969-6.891,2.547l-65.641,51.703c-0.922-0.375-1.859-0.734-2.766-1.125 c-16.516-6.984-31.344-16.984-44.094-29.719c-12.734-12.75-22.734-27.594-29.719-44.094 c-7.234-17.078-10.891-35.242-10.891-53.969s3.656-36.891,10.891-53.969c6.984-16.508,16.984-31.344,29.719-44.086 c12.75-12.742,27.578-22.742,44.094-29.727c17.078-7.219,35.234-10.883,53.969-10.883c18.719,0,36.875,3.664,53.969,10.883 c16.5,6.984,31.328,16.984,44.078,29.727c12.734,12.742,22.734,27.578,29.719,44.086c7.234,17.078,10.891,35.242,10.891,53.969 s-3.656,36.891-10.891,53.969c-6.984,16.5-16.984,31.344-29.719,44.094c-12.75,12.734-27.578,22.734-44.078,29.719 c-17.094,7.219-35.25,10.875-53.969,10.875c-2.344,0-4.672-0.047-7-0.156l36.453-46.281c1.578-1.844,2.547-4.25,2.547-6.875 C288.008,303.438,283.227,298.656,277.336,298.656z M208.804,376.923c0.454,0.14,0.907,0.265,1.36,0.405l-51.844,65.797 l-0.203,0.266l-0.188,0.266c-2.047,2.75-5.172,4.344-8.594,4.344c-5.891,0-10.672-4.781-10.672-10.656 c0-3.438,1.578-6.563,4.344-8.594l0.266-0.203l0.25-0.203L208.804,376.923z M437.336,469.344c0,11.75-9.578,21.313-21.328,21.313 h-160v-64c-18.063,0-35.563-2.344-52.219-6.75l29.547-37.5c7.406,1.031,14.969,1.594,22.672,1.594c88.359,0,160-71.625,160-160 c0-88.367-71.641-160-160-160c-88.375,0-160,71.633-160,160c0,63.203,36.641,117.844,89.844,143.844l-36.422,28.688 c-23.188-14.281-43.281-33.094-59.063-55.188H74.664V42.664c0-11.758,9.578-21.328,21.344-21.328h320 c11.75,0,21.328,9.57,21.328,21.328V469.344z"/> </g> </g><g> <g> <path d="M416.008,32c-5.891,0-10.672,4.773-10.672,10.664s4.781,10.672,10.672,10.672s10.656-4.781,10.656-10.672 S421.898,32,416.008,32z"/> </g> </g><g> <g> <path d="M416.008,458.656c-5.891,0-10.672,4.781-10.672,10.688c0,5.875,4.781,10.656,10.672,10.656s10.656-4.781,10.656-10.656 C426.664,463.438,421.898,458.656,416.008,458.656z"/> </g> </g><g> <g> <path d="M96.008,32c-5.891,0-10.672,4.773-10.672,10.664s4.781,10.672,10.672,10.672s10.656-4.781,10.656-10.672 S101.898,32,96.008,32z"/> </g> </g><g> <g> <path d="M256.008,213.336c-5.891,0-10.672,4.773-10.672,10.664s4.781,10.664,10.672,10.664s10.656-4.773,10.656-10.664 S261.898,213.336,256.008,213.336z"/> </g> </g><g> <g> <path d="M256.008,106.664c-64.813,0-117.344,52.531-117.344,117.336c0,5.891,4.781,10.664,10.672,10.664 s10.672-4.773,10.672-10.664c0-25.641,9.984-49.75,28.109-67.883C206.258,137.984,230.352,128,256.008,128 c5.89,0,10.656-4.773,10.656-10.664S261.898,106.664,256.008,106.664z"/> </g> </g><g> <g> <path d="M256.008,170.664c-29.469,0-53.344,23.883-53.344,53.336s23.875,53.344,53.344,53.344 c29.453,0,53.328-23.891,53.328-53.344S285.461,170.664,256.008,170.664z M256.008,256c-17.656,0-32-14.359-32-32s14.344-32,32-32 c17.641,0,32,14.359,32,32S273.648,256,256.008,256z"/> </g> </g><g> <g> <path d="M96.008,458.656c-5.891,0-10.672,4.781-10.672,10.688c0,5.875,4.781,10.656,10.672,10.656s10.656-4.781,10.656-10.656 C106.664,463.438,101.898,458.656,96.008,458.656z"/> </g> </g><g> <g> <path d="M306.211,429.781c-4.172-4.156-10.922-4.156-15.094,0c-2.078,2.094-3.125,4.828-3.109,7.563v31.984 c-0.016,2.734,1.031,5.453,3.109,7.547c4.172,4.156,10.922,4.156,15.094,0c2.078-2.078,3.125-4.813,3.125-7.531v-32 C309.336,434.594,308.289,431.875,306.211,429.781z"/> </g> </g><g> <g> <path d="M338.211,429.781c-4.172-4.156-10.922-4.156-15.094,0c-2.078,2.094-3.125,4.828-3.109,7.563v31.984 c-0.016,2.734,1.031,5.453,3.109,7.547c4.172,4.156,10.922,4.156,15.094,0c2.078-2.078,3.125-4.813,3.125-7.531v-32 C341.336,434.594,340.289,431.875,338.211,429.781z"/> </g> </g><g> <g> <path d="M370.211,429.781c-4.172-4.156-10.922-4.156-15.094,0c-2.078,2.094-3.125,4.828-3.109,7.563v31.984 c-0.016,2.734,1.031,5.453,3.109,7.547c4.172,4.156,10.922,4.156,15.094,0c2.078-2.094,3.125-4.813,3.125-7.547v-31.984 C373.336,434.609,372.289,431.875,370.211,429.781z"/> </g> </g></symbol><symbol id="document" viewBox="0 0 60 60"><title>document</title><path d="M45,25H20c-0.552,0-1,0.447-1,1s0.448,1,1,1h25c0.552,0,1-0.447,1-1S45.552,25,45,25z"/><path d="M20,19h10c0.552,0,1-0.447,1-1s-0.448-1-1-1H20c-0.552,0-1,0.447-1,1S19.448,19,20,19z"/><path d="M45,33H20c-0.552,0-1,0.447-1,1s0.448,1,1,1h25c0.552,0,1-0.447,1-1S45.552,33,45,33z"/><path d="M45,41H20c-0.552,0-1,0.447-1,1s0.448,1,1,1h25c0.552,0,1-0.447,1-1S45.552,41,45,41z"/><path d="M45,49H20c-0.552,0-1,0.447-1,1s0.448,1,1,1h25c0.552,0,1-0.447,1-1S45.552,49,45,49z"/><path d="M49,14.586V0H6v55h5v5h43V19.586L49,14.586z M40,8.414l9,9L50.586,19H40V8.414z M8,53V2h39v10.586L39.414,5H11v48H8z M13,58v-3V7h25v14h14v37H13z"/></symbol><symbol id="hammer" viewBox="0 0 411.347 411.347"><title>hammer</title><path d="M285.32,217.557c-4.051-4.051-9.437-6.282-15.165-6.282c-1.389,0-2.757,0.137-4.092,0.393l-94.35-94.349l18.283-18.283 c2.929-2.929,2.929-7.677,0-10.606l-4.627-4.627l69.412-69.412c2.079-2.079,2.751-5.181,1.72-7.935 c-1.032-2.753-3.577-4.65-6.511-4.851c-39.83-2.727-78.87,11.595-107.485,39.333l-4.648-4.648 c-1.406-1.406-3.314-2.197-5.303-2.197s-3.897,0.79-5.303,2.197l-74.485,74.485c-2.929,2.929-2.929,7.677,0,10.606l7.175,7.175 l-13.146,13.146l-7.175-7.175c-2.929-2.929-7.678-2.929-10.606,0L2.197,161.344C0.79,162.751,0,164.659,0,166.648 s0.79,3.897,2.197,5.303l52.14,52.139c1.464,1.465,3.384,2.197,5.303,2.197s3.839-0.732,5.303-2.197l26.816-26.816 c1.407-1.406,2.197-3.314,2.197-5.303c0-1.989-0.79-3.897-2.197-5.303l-7.178-7.178l13.146-13.146l7.178,7.178 c1.406,1.406,3.314,2.197,5.303,2.197s3.897-0.79,5.303-2.197l18.283-18.283l94.356,94.356c-1.302,6.759,0.658,14.028,5.881,19.251 l111.896,111.895c4.051,4.051,9.437,6.282,15.165,6.282c5.729,0,11.115-2.231,15.166-6.282l20.958-20.958c0,0,0,0,0,0 c8.361-8.362,8.361-21.968,0-30.331L285.32,217.557z M231.359,16.599l-56.597,56.598l-21.654-21.655 C174.412,30.968,202.144,18.697,231.359,16.599z M59.64,208.18l-41.533-41.533l16.21-16.21l41.533,41.533L59.64,208.18z M73.975,168.883l-16.573-16.573l13.146-13.146l16.573,16.573L73.975,168.883z M110.208,157.612l-41.533-41.533l63.878-63.878 l41.533,41.533L110.208,157.612z M161.107,127.926l91.757,91.756l-16.706,16.706l-91.757-91.756L161.107,127.926z M386.608,349.176 l-20.958,20.958c-1.218,1.218-2.836,1.888-4.559,1.888c-1.722,0-3.341-0.671-4.559-1.888L244.639,258.239 c-2.512-2.512-2.513-6.599-0.005-9.113l20.968-20.968c1.217-1.214,2.833-1.883,4.553-1.883c1.722,0,3.341,0.671,4.559,1.888 l111.895,111.894C389.122,342.572,389.122,346.663,386.608,349.176z"/><path d="M248.499,170.211c-2.929,2.929-2.929,7.678,0,10.607c2.93,2.929,7.678,2.929,10.607,0l16.02-16.02 c19.011-19.011,28.245-44.863,25.335-70.926c-1.744-15.617,4.279-31.152,16.113-41.556c3.396-2.986,7.192-5.456,11.272-7.354 l-6.163,19.756c-2.553,8.18-1.767,16.864,2.214,24.453c3.979,7.589,10.677,13.173,18.856,15.725 c16.885,5.269,34.909-4.185,40.179-21.071l6.366-20.41c4.458,7.255,6.904,15.593,7.042,24.344 c0.207,13.131-4.792,25.476-14.075,34.76c-5.454,5.453-11.914,9.407-19.201,11.753c-13.575,4.37-25.942,11.87-35.763,21.691 l-39.191,39.191c-2.929,2.929-2.929,7.677,0,10.606c1.465,1.465,3.385,2.197,5.304,2.197s3.839-0.732,5.304-2.197l39.191-39.191 c8.145-8.145,18.432-14.376,29.751-18.019c9.441-3.039,18.159-8.373,25.212-15.425c12.181-12.181,18.739-28.377,18.467-45.604 c-0.271-17.227-7.353-33.221-19.938-45.038c-1.884-1.768-4.545-2.443-7.042-1.785c-2.498,0.657-4.482,2.554-5.252,5.02 l-10.494,33.639c-2.805,8.99-12.404,14.023-21.392,11.219c-4.355-1.359-7.921-4.332-10.039-8.372 c-2.119-4.041-2.538-8.664-1.179-13.019l10.374-33.254c0.773-2.482,0.208-5.188-1.497-7.151c-1.704-1.964-4.31-2.903-6.869-2.485 c-11.691,1.905-22.528,7.008-31.341,14.755c-15.51,13.636-23.403,34.005-21.117,54.486c2.402,21.507-5.265,42.885-21.034,58.655 L248.499,170.211z"/><path d="M211.795,271.471c-19.01,19.01-28.244,44.861-25.334,70.926c1.744,15.616-4.28,31.151-16.114,41.556 c-3.396,2.986-7.193,5.456-11.271,7.354l6.163-19.756c2.552-8.18,1.766-16.864-2.214-24.453 c-3.98-7.589-10.677-13.173-18.857-15.725c-8.181-2.552-16.865-1.766-24.453,2.214c-7.589,3.98-13.173,10.677-15.725,18.856 l-6.367,20.41c-4.459-7.256-6.904-15.592-7.042-24.345c-0.207-13.131,4.792-25.476,14.076-34.76 c5.453-5.453,11.913-9.407,19.201-11.752c13.575-4.369,25.941-11.87,35.762-21.691l39.819-39.82c2.929-2.929,2.929-7.678,0-10.606 c-2.929-2.929-7.678-2.929-10.606,0l-39.819,39.82c-8.145,8.145-18.433,14.376-29.751,18.019 c-9.441,3.039-18.16,8.373-25.211,15.425c-12.181,12.181-18.739,28.376-18.468,45.603c0.271,17.227,7.353,33.222,19.939,45.039 c1.883,1.768,4.546,2.443,7.042,1.785c2.498-0.657,4.482-2.554,5.251-5.02l10.494-33.639c1.358-4.355,4.332-7.92,8.372-10.039 c4.04-2.119,8.664-2.538,13.02-1.179c4.355,1.359,7.921,4.332,10.04,8.372s2.538,8.664,1.179,13.019l-10.374,33.254 c-0.774,2.482-0.208,5.188,1.496,7.151c1.437,1.655,3.51,2.583,5.663,2.583c0.401,0,0.804-0.032,1.207-0.098 c11.69-1.905,22.528-7.008,31.34-14.755c15.51-13.637,23.404-34.005,21.117-54.485c-2.401-21.507,5.266-42.886,21.034-58.655 c2.929-2.929,2.929-7.677,0-10.606C219.473,268.542,214.725,268.542,211.795,271.471z"/></symbol><symbol id="robot" viewBox="0 0 471.477 471.477"><title>robot</title><g> <g> <path d="M190.024,105.178c-17.673,0-32,14.327-32,32s14.327,32,32,32c17.673,0,32-14.327,32-32S207.697,105.178,190.024,105.178z M190.024,153.178c-8.837,0-16-7.163-16-16c0.044-8.805,7.195-15.92,16-15.92v-0.08c8.837,0,16,7.163,16,16 S198.861,153.178,190.024,153.178z"/> </g> </g><g> <g> <path d="M281.544,105.178c-17.673,0-32,14.327-32,32s14.327,32,32,32c17.673,0,32-14.327,32-32S299.217,105.178,281.544,105.178z M281.544,153.178c-8.837,0-16-7.163-16-16c0.044-8.805,7.195-15.92,16-15.92v-0.08c8.837,0,16,7.163,16,16 S290.381,153.178,281.544,153.178z"/> </g> </g><g> <g> <path d="M379.097,142.007c-3.452-18.993-18.742-33.603-37.872-36.189c-5.28-19.52-20.48-36.16-51.04-36.16h-46.4v-17.6 c14.034-4.418,21.829-19.377,17.41-33.41c-4.418-14.034-19.377-21.829-33.41-17.41c-14.034,4.418-21.829,19.377-17.41,33.41 c2.613,8.298,9.112,14.798,17.41,17.41v17.2h-46.32c-21.6,0-44.32,9.92-51.2,36.16c-24.381,3.347-41.433,25.825-38.086,50.206 c2.624,19.117,17.255,34.372,36.246,37.794l-0.08,0.4c2.4,35.12,28.48,48,53.04,48h108.8c36.56,0,51.2-24,53.04-48 C367.437,189.416,383.498,166.22,379.097,142.007z M128.104,177.818c-15.11-4.368-23.819-20.158-19.452-35.268 c2.715-9.393,10.059-16.737,19.452-19.452V177.818z M225.144,27.098c0-5.876,4.764-10.64,10.64-10.64 c5.876,0,10.64,4.764,10.64,10.64c0,5.876-4.764,10.64-10.64,10.64C229.908,37.738,225.144,32.974,225.144,27.098z M327.464,188.058c0,13.92-4.88,37.28-37.28,37.28h-108.72c-13.92,0-37.28-4.88-37.28-37.28l-0.08-64.96 c0-32.48,23.36-37.28,37.28-37.28h108.8c32.48,0,37.28,23.36,37.28,37.28V188.058z M343.144,177.258v-54.72 c12.196,3.52,20.604,14.667,20.64,27.36C363.748,162.591,355.34,173.738,343.144,177.258z"/> </g> </g><g> <g> <path d="M281.544,190.938h-91.52c-4.418,0-8,3.582-8,8s3.582,8,8,8h91.52c4.418,0,8-3.582,8-8S285.962,190.938,281.544,190.938z"/> </g> </g><g> <g> <path d="M413.784,256.778L413.784,256.778c-0.153-17.142-14.173-30.915-31.315-30.762c-14.344,0.128-26.732,10.067-29.965,24.042 l-21.36,4.16h-190.72l-21.36-4.16c-3.66-16.748-20.203-27.358-36.951-23.698c-16.748,3.66-27.358,20.203-23.698,36.951 c2.488,11.384,11.141,20.416,22.409,23.388v59.76c-13.533,3.61-22.972,15.834-23.04,29.84v14.16c0,4.418,3.582,8,8,8s8-3.582,8-8 v-14.24c0-8.306,6.734-15.04,15.04-15.04c8.306,0,15.04,6.734,15.04,15.04v14.24c0,4.418,3.582,8,8,8c4.418,0,8-3.582,8-8v-14.24 c-0.068-14.006-9.507-26.23-23.04-29.84v-59.76c10.163-2.738,18.239-10.453,21.44-20.48l13.36,2.64v98.72 c0.016,14.473,3.068,28.781,8.96,42v0.72c23.619,52.357,85.21,75.653,137.566,52.034c23.106-10.424,41.61-28.927,52.034-52.034 l0.4-0.88c5.955-13.151,9.089-27.404,9.2-41.84v-98.72l13.36-2.64c3.201,10.027,11.277,17.742,21.44,20.48v59.76 c-13.533,3.61-22.972,15.834-23.04,29.84v14.24c0,4.418,3.582,8,8,8s8-3.582,8-8v-14.24c0.008-8.306,6.748-15.034,15.054-15.026 c8.295,0.008,15.018,6.731,15.026,15.026v14.24c0,4.418,3.582,8,8,8s8-3.582,8-8v-14.24c-0.068-14.006-9.507-26.23-23.04-29.84 v-59.76C404.18,283.069,413.696,270.829,413.784,256.778z M88.824,271.818c-8.306,0-15.04-6.734-15.04-15.04 c0-8.306,6.734-15.04,15.04-15.04c8.306,0,15.04,6.734,15.04,15.04C103.864,265.084,97.13,271.818,88.824,271.818z M235.784,455.578c-30.139-0.001-58.182-15.425-74.32-40.88h148.64C293.966,440.152,265.923,455.577,235.784,455.578z M323.784,367.578c-0.039,10.668-2.018,21.24-5.84,31.2h-164.48c-3.822-9.96-5.801-20.532-5.84-31.2v-97.36h176.16V367.578z M382.827,271.816c-0.028,0-0.055,0.001-0.083,0.001l-0.16-0.24c-8.306,0-15.04-6.734-15.04-15.04 c0-8.306,6.734-15.04,15.04-15.04c8.306,0,15.04,6.734,15.04,15.04C397.757,264.843,391.132,271.683,382.827,271.816z"/> </g> </g><g> <g> <path d="M264.085,326.679c-1.465-1.322-3.367-2.056-5.341-2.061h-24l29.44-30.24c2.83-3.393,2.375-8.437-1.018-11.268 c-3.034-2.531-7.461-2.468-10.422,0.148l-42.64,43.84c-3.093,3.155-3.042,8.22,0.113,11.313c1.507,1.477,3.537,2.299,5.647,2.287 h24.64l-30.32,33.76c-2.952,3.272-2.702,8.316,0.56,11.28h0c3.272,2.952,8.316,2.702,11.28-0.56l42.64-47.2 C267.624,334.698,267.365,329.639,264.085,326.679z"/> </g> </g></symbol><symbol id="home" viewBox="0 0 512 512"><title>home</title><g> <g> <path d="M506.555,208.064L263.859,30.367c-4.68-3.426-11.038-3.426-15.716,0L5.445,208.064 c-5.928,4.341-7.216,12.665-2.875,18.593s12.666,7.214,18.593,2.875L256,57.588l234.837,171.943c2.368,1.735,5.12,2.57,7.848,2.57 c4.096,0,8.138-1.885,10.744-5.445C513.771,220.729,512.483,212.405,506.555,208.064z"/> </g> </g><g> <g> <path d="M442.246,232.543c-7.346,0-13.303,5.956-13.303,13.303v211.749H322.521V342.009c0-36.68-29.842-66.52-66.52-66.52 s-66.52,29.842-66.52,66.52v115.587H83.058V245.847c0-7.347-5.957-13.303-13.303-13.303s-13.303,5.956-13.303,13.303v225.053 c0,7.347,5.957,13.303,13.303,13.303h133.029c6.996,0,12.721-5.405,13.251-12.267c0.032-0.311,0.052-0.651,0.052-1.036v-128.89 c0-22.009,17.905-39.914,39.914-39.914s39.914,17.906,39.914,39.914v128.89c0,0.383,0.02,0.717,0.052,1.024 c0.524,6.867,6.251,12.279,13.251,12.279h133.029c7.347,0,13.303-5.956,13.303-13.303V245.847 C455.549,238.499,449.593,232.543,442.246,232.543z"/> </g> </g></symbol></svg>