<svg xmlns="http://www.w3.org/2000/svg" style="display: none;"><symbol id="hdd" viewBox="0 0 512 512"><title>hdd</title><g> <g> <path d="M416.008,0h-320C72.43,0,53.336,19.102,53.336,42.664v298.68v128C53.336,492.906,72.43,512,96.008,512h160h160 c23.563,0,42.656-19.094,42.656-42.656V42.664C458.664,19.102,439.57,0,416.008,0z M234.664,490.656H96.008 c-11.766,0-21.344-9.563-21.344-21.313V362.656h5.063c14.688,18.547,32.328,34.75,51.984,47.844l-1.391,1.094 c-7.875,5.828-12.984,15.188-12.984,25.75c0,17.656,14.328,32,32,32c10.563,0,19.922-5.125,25.75-13L189.539,438 c3.891,1.203,7.813,2.313,11.766,3.297c10.938,2.734,22.094,4.641,33.359,5.703V490.656z M277.336,298.656 c-2.625,0-5.031,0.969-6.891,2.547l-65.641,51.703c-0.922-0.375-1.859-0.734-2.766-1.125 c-16.516-6.984-31.344-16.984-44.094-29.719c-12.734-12.75-22.734-27.594-29.719-44.094 c-7.234-17.078-10.891-35.242-10.891-53.969s3.656-36.891,10.891-53.969c6.984-16.508,16.984-31.344,29.719-44.086 c12.75-12.742,27.578-22.742,44.094-29.727c17.078-7.219,35.234-10.883,53.969-10.883c18.719,0,36.875,3.664,53.969,10.883 c16.5,6.984,31.328,16.984,44.078,29.727c12.734,12.742,22.734,27.578,29.719,44.086c7.234,17.078,10.891,35.242,10.891,53.969 s-3.656,36.891-10.891,53.969c-6.984,16.5-16.984,31.344-29.719,44.094c-12.75,12.734-27.578,22.734-44.078,29.719 c-17.094,7.219-35.25,10.875-53.969,10.875c-2.344,0-4.672-0.047-7-0.156l36.453-46.281c1.578-1.844,2.547-4.25,2.547-6.875 C288.008,303.438,283.227,298.656,277.336,298.656z M208.804,376.923c0.454,0.14,0.907,0.265,1.36,0.405l-51.844,65.797 l-0.203,0.266l-0.188,0.266c-2.047,2.75-5.172,4.344-8.594,4.344c-5.891,0-10.672-4.781-10.672-10.656 c0-3.438,1.578-6.563,4.344-8.594l0.266-0.203l0.25-0.203L208.804,376.923z M437.336,469.344c0,11.75-9.578,21.313-21.328,21.313 h-160v-64c-18.063,0-35.563-2.344-52.219-6.75l29.547-37.5c7.406,1.031,14.969,1.594,22.672,1.594c88.359,0,160-71.625,160-160 c0-88.367-71.641-160-160-160c-88.375,0-160,71.633-160,160c0,63.203,36.641,117.844,89.844,143.844l-36.422,28.688 c-23.188-14.281-43.281-33.094-59.063-55.188H74.664V42.664c0-11.758,9.578-21.328,21.344-21.328h320 c11.75,0,21.328,9.57,21.328,21.328V469.344z"/> </g> </g><g> <g> <path d="M416.008,32c-5.891,0-10.672,4.773-10.672,10.664s4.781,10.672,10.672,10.672s10.656-4.781,10.656-10.672 S421.898,32,416.008,32z"/> </g> </g><g> <g> <path d="M416.008,458.656c-5.891,0-10.672,4.781-10.672,10.688c0,5.875,4.781,10.656,10.672,10.656s10.656-4.781,10.656-10.656 C426.664,463.438,421.898,458.656,416.008,458.656z"/> </g> </g><g> <g> <path d="M96.008,32c-5.891,0-10.672,4.773-10.672,10.664s4.781,10.672,10.672,10.672s10.656-4.781,10.656-10.672 S101.898,32,96.008,32z"/> </g> </g><g> <g> <path d="M256.008,213.336c-5.891,0-10.672,4.773-10.672,10.664s4.781,10.664,10.672,10.664s10.656-4.773,10.656-10.664 S261.898,213.336,256.008,213.336z"/> </g> </g><g> <g> <path d="M256.008,106.664c-64.813,0-117.344,52.531-117.344,117.336c0,5.891,4.781,10.664,10.672,10.664 s10.672-4.773,10.672-10.664c0-25.641,9.984-49.75,28.109-67.883C206.258,137.984,230.352,128,256.008,128 c5.89,0,10.656-4.773,10.656-10.664S261.898,106.664,256.008,106.664z"/> </g> </g><g> <g> <path d="M256.008,170.664c-29.469,0-53.344,23.883-53.344,53.336s23.875,53.344,53.344,53.344 c29.453,0,53.328-23.891,53.328-53.344S285.461,170.664,256.008,170.664z M256.008,256c-17.656,0-32-14.359-32-32s14.344-32,32-32 c17.641,0,32,14.359,32,32S273.648,256,256.008,256z"/> </g> </g><g> <g> <path d="M96.008,458.656c-5.891,0-10.672,4.781-10.672,10.688c0,5.875,4.781,10.656,10.672,10.656s10.656-4.781,10.656-10.656 C106.664,463.438,101.898,458.656,96.008,458.656z"/> </g> </g><g> <g> <path d="M306.211,429.781c-4.172-4.156-10.922-4.156-15.094,0c-2.078,2.094-3.125,4.828-3.109,7.563v31.984 c-0.016,2.734,1.031,5.453,3.109,7.547c4.172,4.156,10.922,4.156,15.094,0c2.078-2.078,3.125-4.813,3.125-7.531v-32 C309.336,434.594,308.289,431.875,306.211,429.781z"/> </g> </g><g> <g> <path d="M338.211,429.781c-4.172-4.156-10.922-4.156-15.094,0c-2.078,2.094-3.125,4.828-3.109,7.563v31.984 c-0.016,2.734,1.031,5.453,3.109,7.547c4.172,4.156,10.922,4.156,15.094,0c2.078-2.078,3.125-4.813,3.125-7.531v-32 C341.336,434.594,340.289,431.875,338.211,429.781z"/> </g> </g><g> <g> <path d="M370.211,429.781c-4.172-4.156-10.922-4.156-15.094,0c-2.078,2.094-3.125,4.828-3.109,7.563v31.984 c-0.016,2.734,1.031,5.453,3.109,7.547c4.172,4.156,10.922,4.156,15.094,0c2.078-2.094,3.125-4.813,3.125-7.547v-31.984 C373.336,434.609,372.289,431.875,370.211,429.781z"/> </g> </g></symbol><symbol id="document" viewBox="0 0 60 60"><title>document</title><path d="M45,25H20c-0.552,0-1,0.447-1,1s0.448,1,1,1h25c0.552,0,1-0.447,1-1S45.552,25,45,25z"/><path d="M20,19h10c0.552,0,1-0.447,1-1s-0.448-1-1-1H20c-0.552,0-1,0.447-1,1S19.448,19,20,19z"/><path d="M45,33H20c-0.552,0-1,0.447-1,1s0.448,1,1,1h25c0.552,0,1-0.447,1-1S45.552,33,45,33z"/><path d="M45,41H20c-0.552,0-1,0.447-1,1s0.448,1,1,1h25c0.552,0,1-0.447,1-1S45.552,41,45,41z"/><path d="M45,49H20c-0.552,0-1,0.447-1,1s0.448,1,1,1h25c0.552,0,1-0.447,1-1S45.552,49,45,49z"/><path d="M49,14.586V0H6v55h5v5h43V19.586L49,14.586z M40,8.414l9,9L50.586,19H40V8.414z M8,53V2h39v10.586L39.414,5H11v48H8z M13,58v-3V7h25v14h14v37H13z"/></symbol><symbol id="hammer" viewBox="0 0 412 409"><title>hammer</title>
<path stroke="none" d="
M 381.65 48.75
Q 380.3 47.5 378.55 47.05 376.7 46.65 374.9 47.1 373.2 47.6 371.8 48.8 370.5 50.1 369.95 51.8
L 359.95 83.9
Q 357.95 90.3 352.05 93.4 346.05 96.5 339.65 94.5 336.5 93.55 334.05 91.45 331.55 89.4 330.05 86.55 326.9 80.55 328.95 74.15
L 338.85 42.55
Q 339.3 40.8 338.95 38.95 338.55 37.1 337.4 35.75 336.2 34.3 334.4 33.7 332.7 33.1 330.85 33.35 313.75 36.2 301.05 47.4 290 57.1 284.7 70.9 279.3 84.65 280.95 99.2 282.65 114.55 277.45 129.15 272.15 143.8 260.95 155.05
L 234.35 181.65 172.65 120 190.05 102.55
Q 192.1 100.5 192.1 97.5 192.1 94.55 190.05 92.45
L 185.6 88.1 251.65 22
Q 253.15 20.55 253.65 18.5 254.05 16.45 253.3 14.5 252.55 12.5 250.9 11.3 249.2 10 247.1 9.85 218.75 7.95 192 17.75 165.25 27.5 144.9 47.25
L 140.45 42.8
Q 138.35 40.8 135.4 40.8 132.4 40.8 130.4 42.8
L 59.5 113.7
Q 57.4 115.8 57.4 118.75 57.4 121.75 59.5 123.8
L 66.3 130.65 53.75 143.2 46.95 136.3
Q 44.85 134.3 41.9 134.3 41.5 134.3 41.1 134.35 38.7 134.55 36.9 136.3
L 11.35 161.8
Q 9.3 163.95 9.3 166.9 9.3 169.8 11.35 171.95
L 61 221.5
Q 63.05 223.6 66.05 223.6 69 223.6 71.05 221.5
L 96.6 196.05
Q 98.7 193.95 98.7 191 98.7 188 96.6 185.95
L 89.7 179.1 102.25 166.55 109.05 173.45
Q 111.2 175.55 114.15 175.55 117.1 175.55 119.2 173.45
L 136.6 156 198.25 217.7 151.1 264.95
Q 139.15 276.8 122.75 282.05 109 286.5 98.8 296.7 90.05 305.4 85.55 316.65 81 327.8 81.15 340.05 81.4 352.4 86.25 363.45 91.15 374.55 100.15 382.95 101.5 384.25 103.3 384.7 105.05 385.15 106.9 384.7 108.65 384.2 109.95 382.95 111.3 381.7 111.85 379.9
L 121.85 347.9
Q 122.8 344.75 124.85 342.3 126.9 339.8 129.75 338.35 135.75 335.25 142.25 337.2 148.7 339.3 151.7 345.2 154.85 351.1 152.85 357.55
L 143 389.15
Q 142.45 391 142.85 392.8 143.2 394.6 144.4 396 146.6 398.5 149.8 398.5
L 150.95 398.35
Q 167.9 395.65 180.75 384.35 191.85 374.6 197.2 360.85 202.5 347.1 200.85 332.5 199.15 317.1 204.4 302.55 208.55 290.9 216.6 281.35
L 232.95 265.1 338.35 370.6
Q 341.3 373.45 344.95 374.95 348.75 376.55 352.8 376.55 356.9 376.55 360.6 374.95 364.35 373.45 367.25 370.6
L 387.2 350.65
Q 393.1 344.7 393.1 336.2 393.1 327.75 387.2 321.8
L 281.55 216.15 330.8 166.85
Q 342.7 154.85 359.05 149.65 372.75 145.25 383.05 134.95 391.75 126.3 396.25 115.05 400.8 103.9 400.6 91.6 400.4 79.3 395.5 68.2 390.65 57.2 381.65 48.75 Z"/>
</symbol><symbol id="robotic" viewBox="0 0 471.477 471.477"><title>robotic</title><g> <g> <path d="M190.024,105.178c-17.673,0-32,14.327-32,32s14.327,32,32,32c17.673,0,32-14.327,32-32S207.697,105.178,190.024,105.178z M190.024,153.178c-8.837,0-16-7.163-16-16c0.044-8.805,7.195-15.92,16-15.92v-0.08c8.837,0,16,7.163,16,16 S198.861,153.178,190.024,153.178z"/> </g> </g><g> <g> <path d="M281.544,105.178c-17.673,0-32,14.327-32,32s14.327,32,32,32c17.673,0,32-14.327,32-32S299.217,105.178,281.544,105.178z M281.544,153.178c-8.837,0-16-7.163-16-16c0.044-8.805,7.195-15.92,16-15.92v-0.08c8.837,0,16,7.163,16,16 S290.381,153.178,281.544,153.178z"/> </g> </g><g> <g> <path d="M379.097,142.007c-3.452-18.993-18.742-33.603-37.872-36.189c-5.28-19.52-20.48-36.16-51.04-36.16h-46.4v-17.6 c14.034-4.418,21.829-19.377,17.41-33.41c-4.418-14.034-19.377-21.829-33.41-17.41c-14.034,4.418-21.829,19.377-17.41,33.41 c2.613,8.298,9.112,14.798,17.41,17.41v17.2h-46.32c-21.6,0-44.32,9.92-51.2,36.16c-24.381,3.347-41.433,25.825-38.086,50.206 c2.624,19.117,17.255,34.372,36.246,37.794l-0.08,0.4c2.4,35.12,28.48,48,53.04,48h108.8c36.56,0,51.2-24,53.04-48 C367.437,189.416,383.498,166.22,379.097,142.007z M128.104,177.818c-15.11-4.368-23.819-20.158-19.452-35.268 c2.715-9.393,10.059-16.737,19.452-19.452V177.818z M225.144,27.098c0-5.876,4.764-10.64,10.64-10.64 c5.876,0,10.64,4.764,10.64,10.64c0,5.876-4.764,10.64-10.64,10.64C229.908,37.738,225.144,32.974,225.144,27.098z M327.464,188.058c0,13.92-4.88,37.28-37.28,37.28h-108.72c-13.92,0-37.28-4.88-37.28-37.28l-0.08-64.96 c0-32.48,23.36-37.28,37.28-37.28h108.8c32.48,0,37.28,23.36,37.28,37.28V188.058z M343.144,177.258v-54.72 c12.196,3.52,20.604,14.667,20.64,27.36C363.748,162.591,355.34,173.738,343.144,177.258z"/> </g> </g><g> <g> <path d="M281.544,190.938h-91.52c-4.418,0-8,3.582-8,8s3.582,8,8,8h91.52c4.418,0,8-3.582,8-8S285.962,190.938,281.544,190.938z"/> </g> </g><g> <g> <path d="M413.784,256.778L413.784,256.778c-0.153-17.142-14.173-30.915-31.315-30.762c-14.344,0.128-26.732,10.067-29.965,24.042 l-21.36,4.16h-190.72l-21.36-4.16c-3.66-16.748-20.203-27.358-36.951-23.698c-16.748,3.66-27.358,20.203-23.698,36.951 c2.488,11.384,11.141,20.416,22.409,23.388v59.76c-13.533,3.61-22.972,15.834-23.04,29.84v14.16c0,4.418,3.582,8,8,8s8-3.582,8-8 v-14.24c0-8.306,6.734-15.04,15.04-15.04c8.306,0,15.04,6.734,15.04,15.04v14.24c0,4.418,3.582,8,8,8c4.418,0,8-3.582,8-8v-14.24 c-0.068-14.006-9.507-26.23-23.04-29.84v-59.76c10.163-2.738,18.239-10.453,21.44-20.48l13.36,2.64v98.72 c0.016,14.473,3.068,28.781,8.96,42v0.72c23.619,52.357,85.21,75.653,137.566,52.034c23.106-10.424,41.61-28.927,52.034-52.034 l0.4-0.88c5.955-13.151,9.089-27.404,9.2-41.84v-98.72l13.36-2.64c3.201,10.027,11.277,17.742,21.44,20.48v59.76 c-13.533,3.61-22.972,15.834-23.04,29.84v14.24c0,4.418,3.582,8,8,8s8-3.582,8-8v-14.24c0.008-8.306,6.748-15.034,15.054-15.026 c8.295,0.008,15.018,6.731,15.026,15.026v14.24c0,4.418,3.582,8,8,8s8-3.582,8-8v-14.24c-0.068-14.006-9.507-26.23-23.04-29.84 v-59.76C404.18,283.069,413.696,270.829,413.784,256.778z M88.824,271.818c-8.306,0-15.04-6.734-15.04-15.04 c0-8.306,6.734-15.04,15.04-15.04c8.306,0,15.04,6.734,15.04,15.04C103.864,265.084,97.13,271.818,88.824,271.818z M235.784,455.578c-30.139-0.001-58.182-15.425-74.32-40.88h148.64C293.966,440.152,265.923,455.577,235.784,455.578z M323.784,367.578c-0.039,10.668-2.018,21.24-5.84,31.2h-164.48c-3.822-9.96-5.801-20.532-5.84-31.2v-97.36h176.16V367.578z M382.827,271.816c-0.028,0-0.055,0.001-0.083,0.001l-0.16-0.24c-8.306,0-15.04-6.734-15.04-15.04 c0-8.306,6.734-15.04,15.04-15.04c8.306,0,15.04,6.734,15.04,15.04C397.757,264.843,391.132,271.683,382.827,271.816z"/> </g> </g><g> <g> <path d="M264.085,326.679c-1.465-1.322-3.367-2.056-5.341-2.061h-24l29.44-30.24c2.83-3.393,2.375-8.437-1.018-11.268 c-3.034-2.531-7.461-2.468-10.422,0.148l-42.64,43.84c-3.093,3.155-3.042,8.22,0.113,11.313c1.507,1.477,3.537,2.299,5.647,2.287 h24.64l-30.32,33.76c-2.952,3.272-2.702,8.316,0.56,11.28h0c3.272,2.952,8.316,2.702,11.28-0.56l42.64-47.2 C267.624,334.698,267.365,329.639,264.085,326.679z"/> </g> </g></symbol><symbol id="home" viewBox="0 0 58.365 58.365"><title>home</title><path d="M57.863,26.632l-8.681-8.061V5.365h-10v3.921L29.182,0L0.502,26.632c-0.404,0.376-0.428,1.009-0.052,1.414 c0.375,0.404,1.008,0.427,1.414,0.052l3.319-3.082v33.349h16h16h16V25.015l3.319,3.082c0.192,0.179,0.437,0.267,0.681,0.267 c0.269,0,0.536-0.107,0.732-0.319C58.291,27.641,58.267,27.008,57.863,26.632z M41.182,7.365h6v9.349l-6-5.571V7.365z M23.182,56.365V35.302c0-0.517,0.42-0.937,0.937-0.937h10.126c0.517,0,0.937,0.42,0.937,0.937v21.063H23.182z M51.182,56.365h-14 V35.302c0-1.62-1.317-2.937-2.937-2.937H24.119c-1.62,0-2.937,1.317-2.937,2.937v21.063h-14V23.158l22-20.429l14.28,13.26 l5.72,5.311v0l2,1.857V56.365z"/></symbol><symbol id="terminal" viewBox="0 0 471.362 471.362"><title>terminal</title><path d="M468.794,355.171c-1.707-1.718-3.897-2.57-6.563-2.57H188.145c-2.664,0-4.854,0.853-6.567,2.57 c-1.711,1.711-2.565,3.897-2.565,6.563v18.274c0,2.662,0.854,4.853,2.565,6.563c1.713,1.712,3.903,2.57,6.567,2.57h274.086 c2.666,0,4.856-0.858,6.563-2.57c1.711-1.711,2.567-3.901,2.567-6.563v-18.274C471.365,359.068,470.513,356.882,468.794,355.171z"/><path d="M30.259,85.075c-1.903-1.903-4.093-2.856-6.567-2.856s-4.661,0.953-6.563,2.856L2.852,99.353 C0.95,101.255,0,103.442,0,105.918c0,2.478,0.95,4.664,2.852,6.567L115.06,224.69L2.852,336.896C0.95,338.799,0,340.989,0,343.46 c0,2.478,0.95,4.665,2.852,6.567l14.276,14.273c1.903,1.906,4.089,2.854,6.563,2.854s4.665-0.951,6.567-2.854l133.048-133.045 c1.903-1.902,2.853-4.096,2.853-6.57c0-2.473-0.95-4.663-2.853-6.565L30.259,85.075z"/></symbol><symbol id="user" viewBox="0 0 258.75 258.75"><title>user</title><g><circle cx="129.375" cy="60" r="60"/><path d="M129.375,150c-60.061,0-108.75,48.689-108.75,108.75h217.5C238.125,198.689,189.436,150,129.375,150z"/>
</g></symbol><symbol id="reload" viewBox="0 0 491.236 491.236"><title>reload</title><path d="M55.89,262.818c-3-26-0.5-51.1,6.3-74.3c22.6-77.1,93.5-133.8,177.6-134.8v-50.4c0-2.8,3.5-4.3,5.8-2.6l103.7,76.2
			c1.7,1.3,1.7,3.9,0,5.1l-103.6,76.2c-2.4,1.7-5.8,0.2-5.8-2.6v-50.3c-55.3,0.9-102.5,35-122.8,83.2c-7.7,18.2-11.6,38.3-10.5,59.4
			c1.5,29,12.4,55.7,29.6,77.3c9.2,11.5,7,28.3-4.9,37c-11.3,8.3-27.1,6-35.8-5C74.19,330.618,59.99,298.218,55.89,262.818z
			 M355.29,166.018c17.3,21.5,28.2,48.3,29.6,77.3c1.1,21.2-2.9,41.3-10.5,59.4c-20.3,48.2-67.5,82.4-122.8,83.2v-50.3
			c0-2.8-3.5-4.3-5.8-2.6l-103.7,76.2c-1.7,1.3-1.7,3.9,0,5.1l103.6,76.2c2.4,1.7,5.8,0.2,5.8-2.6v-50.4
			c84.1-0.9,155.1-57.6,177.6-134.8c6.8-23.2,9.2-48.3,6.3-74.3c-4-35.4-18.2-67.8-39.5-94.4c-8.8-11-24.5-13.3-35.8-5
			C348.29,137.718,346.09,154.518,355.29,166.018z"/></symbol>
			<symbol id="menu" viewBox="0 0 512 512">
				<title>
					menu
				</title>
				<g>
	<g>
		<path d="M491.318,235.318H20.682C9.26,235.318,0,244.577,0,256s9.26,20.682,20.682,20.682h470.636
			c11.423,0,20.682-9.259,20.682-20.682C512,244.578,502.741,235.318,491.318,235.318z"/>
	</g>
</g>
<g>
	<g>
		<path d="M491.318,78.439H20.682C9.26,78.439,0,87.699,0,99.121c0,11.422,9.26,20.682,20.682,20.682h470.636
			c11.423,0,20.682-9.26,20.682-20.682C512,87.699,502.741,78.439,491.318,78.439z"/>
	</g>
</g>
<g>
	<g>
		<path d="M491.318,392.197H20.682C9.26,392.197,0,401.456,0,412.879s9.26,20.682,20.682,20.682h470.636
			c11.423,0,20.682-9.259,20.682-20.682S502.741,392.197,491.318,392.197z"/>
	</g>
	</g>
			</symbol>
			<symbol id="close" viewBox="0 0 357 357">
				<title>
				close
				</title>
			<g id="close">
		<polygon points="357,35.7 321.3,0 178.5,142.8 35.7,0 0,35.7 142.8,178.5 0,321.3 35.7,357 178.5,214.2 321.3,357 357,321.3 
			214.2,178.5 		"/>
	</g>
</symbol>
			</svg>